<?xml version="1.0" encoding="UTF-8" standalone="no"?>
<!-- Created with Inkscape (http://www.inkscape.org/) -->

<svg
   version="1.1"
   id="svg18"
   width="220"
   height="55"
   viewBox="0 0 220 55"
   sodipodi:docname="logo2.svg"
   inkscape:version="1.2 (dc2aedaf03, 2022-05-15)"
   xmlns:inkscape="http://www.inkscape.org/namespaces/inkscape"
   xmlns:sodipodi="http://sodipodi.sourceforge.net/DTD/sodipodi-0.dtd"
   xmlns="http://www.w3.org/2000/svg"
   xmlns:svg="http://www.w3.org/2000/svg">
  <sodipodi:namedview
     id="namedview37"
     pagecolor="#ffffff"
     bordercolor="#000000"
     borderopacity="0.25"
     inkscape:showpageshadow="2"
     inkscape:pageopacity="0.0"
     inkscape:pagecheckerboard="0"
     inkscape:deskcolor="#d1d1d1"
     showgrid="false"
     inkscape:zoom="4.2909091"
     inkscape:cx="93.919492"
     inkscape:cy="27.5"
     inkscape:window-width="2560"
     inkscape:window-height="1494"
     inkscape:window-x="-11"
     inkscape:window-y="-11"
     inkscape:window-maximized="1"
     inkscape:current-layer="text251" />
  <defs
     id="defs22">
    <clipPath
       clipPathUnits="userSpaceOnUse"
       id="clipPath610">
      <path
         d="M 0,595.28 H 841.89 V 0 H 0 Z"
         id="path608" />
    </clipPath>
    <clipPath
       clipPathUnits="userSpaceOnUse"
       id="clipPath644">
      <path
         d="m 646.873,205.421 v -0.009 0.013 z"
         id="path642" />
    </clipPath>
    <linearGradient
       x1="0"
       y1="0"
       x2="1"
       y2="0"
       gradientUnits="userSpaceOnUse"
       gradientTransform="matrix(-10.529038,-8.4451599,-8.4451599,10.529038,638.07812,198.36523)"
       spreadMethod="pad"
       id="linearGradient656">
      <stop
         style="stop-opacity:1;stop-color:#f7f7f8"
         offset="0"
         id="stop650" />
      <stop
         style="stop-opacity:1;stop-color:#f7f7f8"
         offset="0.26303688"
         id="stop652" />
      <stop
         style="stop-opacity:1;stop-color:#dcdddd"
         offset="1"
         id="stop654" />
    </linearGradient>
    <clipPath
       clipPathUnits="userSpaceOnUse"
       id="clipPath666">
      <path
         d="M 0,595.28 H 841.89 V 0 H 0 Z"
         id="path664" />
    </clipPath>
  </defs>
  <g
     id="g26"
     transform="matrix(1.3333333,0,0,-1.3333333,0,793.70667)">
    <g
       id="g604"
       transform="translate(-618.24189,372.29648)">
      <g
         id="g606"
         clip-path="url(#clipPath610)">
        <g
           id="g634"
           transform="translate(655.2266,202.541)">
          <path
             d="m 0,0 c 0,-8.776 -7.115,-15.891 -15.891,-15.891 -8.776,0 -15.892,7.115 -15.892,15.891 0,8.774 7.116,15.892 15.892,15.892 C -7.115,15.892 0,8.774 0,0"
             style="fill:#e83e44;fill-opacity:1;fill-rule:nonzero;stroke:none"
             id="path636" />
        </g>
      </g>
    </g>
    <g
       id="g638"
       transform="translate(-618.24189,372.29648)">
      <g
         id="g640"
         clip-path="url(#clipPath644)">
        <g
           id="g646">
          <g
             id="g648">
            <path
               d="m 646.873,205.421 v -0.009 0.013 z"
               style="fill:url(#linearGradient656);stroke:none"
               id="path658" />
          </g>
        </g>
      </g>
    </g>
    <g
       id="g660"
       transform="translate(-618.24189,372.29648)">
      <g
         id="g662"
         clip-path="url(#clipPath666)">
        <g
           id="g668"
           transform="translate(626.0918,204.3135)">
          <path
             d="M 0,0 C 0,-0.013 0.025,-0.354 0.025,-0.354 0.024,-0.433 0.067,-0.503 0.135,-0.535 0.2,-0.563 0.276,-0.549 0.335,-0.495 0.928,0.001 1.828,0.447 2.549,0.196 3.111,0.001 3.498,-0.581 3.697,-1.538 4.109,-3.541 2.732,-4.506 1.876,-4.903 L 1.846,-4.916 0.748,-5.458 c 0,0 -0.06,-0.023 -0.128,0.01 -0.066,0.033 -0.091,0.079 -0.133,0.195 -0.749,2.761 -1.001,5.655 -0.721,8.354 0.027,0.208 0.117,0.451 0.281,0.652 L 0.96,4.735 1.066,4.847 C 1.57,5.337 2.033,5.577 2.289,5.474 2.506,5.383 2.559,5.046 2.563,4.778 2.602,3.343 1.8,1.877 0.111,0.295 0.111,0.295 -0.015,0.19 0,0 M 5.06,1.99 C 4.561,2.288 3.99,2.374 3.42,2.292 4.463,3.401 5.03,4.608 5.03,5.825 5.03,5.937 5.025,6.048 5.016,6.159 4.959,6.917 4.605,7.485 4.071,7.68 3.523,7.879 2.537,7.779 0.953,6.166 L 0.008,5.104 C -0.25,4.786 -1.246,3.279 -1.434,1.712 c -0.306,-2.67 -0.109,-5.329 0.569,-7.692 0.08,-0.275 0.331,-0.942 0.945,-1.191 0.652,-0.262 1.27,0.054 1.813,0.337 l 0.145,0.072 0.562,0.252 0.546,0.242 0.67,0.291 c 0.477,0.195 0.928,0.379 1.362,0.745 0.584,0.495 1.01,1.147 1.23,1.883 0.113,0.383 0.19,0.8 0.233,1.274 0.033,0.369 0.068,1.081 -0.067,1.709 C 6.275,1.016 5.585,1.679 5.06,1.99"
             style="fill:#ffffff;fill-opacity:1;fill-rule:nonzero;stroke:none"
             id="path670" />
        </g>
        <g
           id="g672"
           transform="translate(643.625,214.6777)">
          <path
             d="m 0,0 c -0.309,1.058 -0.818,1.282 -0.962,1.33 -1.315,0.422 -2.687,0.509 -4.02,0.274 -2.002,-0.367 -3.735,-1.415 -4.877,-2.954 -1.203,-1.617 -1.666,-3.632 -1.311,-5.672 0.361,-2.049 1.399,-3.707 3.004,-4.793 1.879,-1.27 4.389,-1.657 7.064,-1.089 1.579,0.339 2.891,0.956 3.903,1.829 0.452,0.392 0.543,0.889 0.543,1.243 0,0 0.019,0.281 -0.199,1.171 -0.059,0.218 -0.155,0.281 -0.307,0.281 -0.11,0 -0.227,-0.126 -0.25,-0.152 -0.753,-0.873 -1.904,-1.482 -3.344,-1.766 -3.683,-0.708 -6.52,1.014 -7.222,4.39 -0.301,1.461 -0.049,2.864 0.708,3.953 0.768,1.099 2.024,1.83 3.536,2.058 1.155,0.168 2.326,0.025 3.383,-0.415 0,0 0.449,-0.128 0.351,0.312"
             style="fill:#ffffff;fill-opacity:1;fill-rule:nonzero;stroke:none"
             id="path674" />
        </g>
        <g
           id="g680"
           transform="translate(670.2793,194.0674)">
          <path
             d="M 0,0 H -0.071 -2.242 C -2.74,0 -3.144,0.353 -3.199,0.797 v 15.321 c 0.055,0.449 0.459,0.801 0.957,0.801 h 2.428 c 2.693,0 4.361,-1.149 4.361,-3.186 0,-3.314 -3.16,-4.197 -6.082,-4.252 -0.135,0 -0.244,-0.097 -0.244,-0.22 V 8.675 C -1.779,8.545 -1.67,8.45 -1.535,8.45 1.367,8.4 5.203,7.852 5.203,3.757 5.203,1.076 2.74,0 0,0 m 0.342,-2.696 c 6.771,0 9.226,3.173 9.226,6.311 0,2.995 -2.273,4.976 -4.748,5.558 2.559,0.674 3.905,2.306 3.905,4.663 0,2.539 -1.961,5.773 -8.864,5.773 v 0.005 H -2.171 C -3.229,19.595 -7.092,19.3 -7.092,16.118 V 0.807 c 0,-3.688 5.184,-3.503 5.184,-3.503 z"
             style="fill:#595757;fill-opacity:1;fill-rule:nonzero;stroke:none"
             id="path682" />
        </g>
        <g
           id="g684"
           transform="translate(693.2227,210.3809)">
          <path
             d="m 0,0 c 2.168,-0.08 3.724,-0.824 5.248,-1.896 0.055,-0.04 0.115,-0.051 0.186,-0.051 0.205,0 0.372,0.167 0.372,0.375 v 0.889 c 0,1.473 -0.455,2.081 -0.902,2.353 -1.785,0.97 -3.879,1.514 -6.123,1.514 -6.502,0 -11.043,-4.537 -11.043,-11.036 v -0.003 c 0,-6.503 4.541,-11.04 11.043,-11.04 2.244,0 4.338,0.547 6.123,1.517 0.447,0.274 0.902,0.88 0.902,2.354 v 0.889 c 0,0.206 -0.167,0.372 -0.372,0.372 -0.071,0 -0.131,-0.011 -0.186,-0.05 -1.524,-1.071 -3.08,-1.813 -5.248,-1.897 -5.021,-0.188 -8.216,2.766 -8.216,7.855 v 0.003 c 0,5.09 3.195,8.043 8.216,7.852"
             style="fill:#595757;fill-opacity:1;fill-rule:nonzero;stroke:none"
             id="path686" />
        </g>
        <g
           aria-label="콜라보"
           transform="scale(1,-1)"
           id="text251"
           style="font-size:26px;font-family:'BC card';-inkscape-font-specification:'BC card';fill:#595757;stroke-width:0.75">
          <path
             d="m 723.72606,-192.68749 v 1.274 q 0,0.364 -0.286,0.624 -0.286,0.26 -0.598,0.26 h -11.544 q -1.04,0 -1.742,-0.702 -0.676,-0.676 -0.676,-1.898 v -2.964 h 10.842 q 0.286,0 0.442,-0.156 0.182,-0.156 0.182,-0.442 v -0.728 h -11.726 v -2.132 h 14.846 v 3.276 q 0,0.91 -0.546,1.534 -0.546,0.624 -1.612,0.624 h -9.256 v 0.65 q 0,0.39 0.182,0.572 0.182,0.208 0.546,0.208 z m 2.964,-10.556 v 1.04 q 0,0.572 -0.338,0.858 -0.338,0.286 -0.728,0.286 h -20.046 v -2.184 h 6.604 v -2.86 h 3.276 v 2.86 z m -6.37,-4.212 h -11.596 v -2.106 h 11.726 v -1.638 h -11.986 v -2.184 h 13.624 q 0.754,0 1.196,0.468 0.442,0.468 0.442,1.17 v 2.392 q 0,0.676 -0.156,1.43 -0.13,0.754 -0.338,1.456 -0.234,0.728 -0.546,1.352 -0.286,0.624 -0.598,1.04 l -2.418,-0.78 q 0.182,-0.494 0.364,-1.144 0.182,-0.676 0.286,-1.456 z"
             id="path350" />
          <path
             d="m 745.54008,-213.64349 h 3.276 v 6.968 h 3.744 v 2.184 h -3.744 v 11.284 q 0,0.754 -0.442,1.196 -0.416,0.442 -1.196,0.442 h -1.638 z m -4.16,7.072 q 0,0.91 -0.546,1.534 -0.546,0.624 -1.612,0.624 h -5.538 v 3.328 q 0,0.39 0.182,0.598 0.182,0.182 0.546,0.182 h 8.788 v 1.326 q 0,0.364 -0.286,0.624 -0.286,0.26 -0.598,0.26 h -9.49 q -1.04,0 -1.742,-0.676 -0.676,-0.702 -0.676,-1.924 v -5.928 h 7.176 q 0.286,0 0.442,-0.156 0.182,-0.156 0.182,-0.442 v -3.432 h -7.54 v -2.21 h 9.074 q 0.754,0 1.196,0.468 0.442,0.468 0.442,1.17 z"
             id="path352" />
          <path
             d="m 775.57009,-197.23749 v 1.04 q 0,0.572 -0.338,0.858 -0.338,0.286 -0.728,0.286 h -20.046 v -2.184 h 8.944 v -3.848 h -3.25 q -1.092,0 -1.768,-0.65 -0.65,-0.676 -0.65,-1.898 v -9.23 h 1.664 q 0.78,0 1.196,0.468 0.442,0.468 0.442,1.17 v 2.314 h 8.242 v -3.952 h 1.638 q 0.754,0 1.196,0.468 0.442,0.468 0.442,1.17 v 6.734 q 0,1.404 -0.832,2.418 -0.806,0.988 -2.444,0.988 h -2.6 v 3.848 z m -13.832,-6.032 h 6.37 q 0.52,0 0.832,-0.286 0.338,-0.312 0.338,-0.936 v -2.262 h -8.242 v 2.6 q 0,0.494 0.182,0.702 0.208,0.182 0.52,0.182 z"
             id="path354" />
        </g>
      </g>
    </g>
  </g>
</svg>
