<?xml version="1.0" encoding="UTF-8" standalone="no"?>
<!-- Created with Inkscape (http://www.inkscape.org/) -->

<svg
   version="1.1"
   id="svg18"
   width="220"
   height="56.666668"
   viewBox="0 0 220 56.66667"
   sodipodi:docname="logo-white-2.svg"
   inkscape:version="1.2 (dc2aedaf03, 2022-05-15)"
   xmlns:inkscape="http://www.inkscape.org/namespaces/inkscape"
   xmlns:sodipodi="http://sodipodi.sourceforge.net/DTD/sodipodi-0.dtd"
   xmlns="http://www.w3.org/2000/svg"
   xmlns:svg="http://www.w3.org/2000/svg">
  <sodipodi:namedview
     id="namedview100"
     pagecolor="#ffffff"
     bordercolor="#000000"
     borderopacity="0.25"
     inkscape:showpageshadow="2"
     inkscape:pageopacity="0.0"
     inkscape:pagecheckerboard="0"
     inkscape:deskcolor="#d1d1d1"
     showgrid="false"
     inkscape:zoom="4.1647058"
     inkscape:cx="161.59605"
     inkscape:cy="54.985877"
     inkscape:window-width="2560"
     inkscape:window-height="1494"
     inkscape:window-x="-11"
     inkscape:window-y="-11"
     inkscape:window-maximized="1"
     inkscape:current-layer="text512" />
  <defs
     id="defs22">
    <rect
       x="117.41526"
       y="6.4830508"
       width="157.51413"
       height="79.957626"
       id="rect568" />
    <clipPath
       clipPathUnits="userSpaceOnUse"
       id="clipPath610">
      <path
         d="M 0,595.28 H 841.89 V 0 H 0 Z"
         id="path608" />
    </clipPath>
    <clipPath
       clipPathUnits="userSpaceOnUse"
       id="clipPath644">
      <path
         d="m 646.873,205.421 v -0.009 0.013 z"
         id="path642" />
    </clipPath>
    <linearGradient
       x1="0"
       y1="0"
       x2="1"
       y2="0"
       gradientUnits="userSpaceOnUse"
       gradientTransform="matrix(-10.529038,-8.4451599,-8.4451599,10.529038,638.07812,198.36523)"
       spreadMethod="pad"
       id="linearGradient656">
      <stop
         style="stop-opacity:1;stop-color:#f7f7f8"
         offset="0"
         id="stop650" />
      <stop
         style="stop-opacity:1;stop-color:#f7f7f8"
         offset="0.26303688"
         id="stop652" />
      <stop
         style="stop-opacity:1;stop-color:#dcdddd"
         offset="1"
         id="stop654" />
    </linearGradient>
    <clipPath
       clipPathUnits="userSpaceOnUse"
       id="clipPath666">
      <path
         d="M 0,595.28 H 841.89 V 0 H 0 Z"
         id="path664" />
    </clipPath>
  </defs>
  <g
     inkscape:groupmode="layer"
     id="layer2"
     inkscape:label="Layer 1"
     style="fill:#000000" />
  <g
     id="g26"
     transform="matrix(1.3333333,0,0,-1.3333333,0,793.70667)">
    <g
       id="g604"
       transform="translate(-618.24189,372.29648)">
      <g
         id="g606"
         clip-path="url(#clipPath610)">
        <g
           id="g634"
           transform="translate(655.2266,202.541)">
          <path
             d="m 0,0 c 0,-8.776 -7.115,-15.891 -15.891,-15.891 -8.776,0 -15.892,7.115 -15.892,15.891 0,8.774 7.116,15.892 15.892,15.892 C -7.115,15.892 0,8.774 0,0"
             style="fill:#e83e44;fill-opacity:1;fill-rule:nonzero;stroke:none"
             id="path636" />
        </g>
        <path
           style="fill:#ffffff;stroke-width:0.364466"
           d="m 64.658125,41.781135 c -2.13319,-0.457694 -3.747809,-1.597241 -4.227312,-2.983503 -0.295391,-0.853986 -0.441432,-4.591513 -0.455016,-11.644914 -0.02244,-11.652847 0.08529,-12.234266 2.530124,-13.655077 1.105321,-0.642355 1.908214,-0.741085 6.013689,-0.739491 5.3894,0.0021 7.487974,0.522955 9.806293,2.433909 3.859843,3.181609 3.024794,8.693418 -1.605807,10.59926 l -1.275631,0.525019 1.388049,0.590726 c 3.263226,1.388764 4.985316,3.71197 4.988239,6.729445 0.0035,3.593131 -2.302502,6.344755 -6.344815,7.570985 -2.105897,0.638821 -8.847791,0.996326 -10.817813,0.573641 z m 7.390816,-3.378367 c 1.34089,-0.28757 2.286487,-0.774237 3.115901,-1.603651 1.067746,-1.067746 1.190788,-1.406651 1.190788,-3.279894 0,-3.765568 -2.176691,-5.745499 -6.85392,-6.234366 -2.78825,-0.29143 -3.029319,-1.03262 -0.435761,-1.339789 2.432734,-0.288121 4.897281,-1.419934 5.674335,-2.605868 0.348112,-0.531286 0.71044,-1.772626 0.805173,-2.758533 0.159488,-1.659831 0.07954,-1.885261 -1.079742,-3.044543 -1.423399,-1.423399 -3.023896,-1.800209 -6.85727,-1.614431 l -2.369029,0.114812 -0.09661,10.890013 c -0.06859,7.731175 0.02365,11.034917 0.317976,11.389563 0.513855,0.619157 3.897725,0.663682 6.588161,0.08669 z"
           id="path360"
           transform="matrix(0.75000002,0,0,-0.75000002,618.24189,222.98354)" />
        <path
           style="fill:#ffffff;stroke-width:0.364466"
           d="m 64.658125,41.781135 c -2.13319,-0.457694 -3.747809,-1.597241 -4.227312,-2.983503 -0.295391,-0.853986 -0.441432,-4.591513 -0.455016,-11.644914 -0.02244,-11.652847 0.08529,-12.234266 2.530124,-13.655077 1.105321,-0.642355 1.908214,-0.741085 6.013689,-0.739491 5.3894,0.0021 7.487974,0.522955 9.806293,2.433909 3.859843,3.181609 3.024794,8.693418 -1.605807,10.59926 l -1.275631,0.525019 1.388049,0.590726 c 3.263226,1.388764 4.985316,3.71197 4.988239,6.729445 0.0035,3.593131 -2.302502,6.344755 -6.344815,7.570985 -2.105897,0.638821 -8.847791,0.996326 -10.817813,0.573641 z m 7.390816,-3.378367 c 1.34089,-0.28757 2.286487,-0.774237 3.115901,-1.603651 1.067746,-1.067746 1.190788,-1.406651 1.190788,-3.279894 0,-3.765568 -2.176691,-5.745499 -6.85392,-6.234366 -2.78825,-0.29143 -3.029319,-1.03262 -0.435761,-1.339789 2.432734,-0.288121 4.897281,-1.419934 5.674335,-2.605868 0.348112,-0.531286 0.71044,-1.772626 0.805173,-2.758533 0.159488,-1.659831 0.07954,-1.885261 -1.079742,-3.044543 -1.423399,-1.423399 -3.023896,-1.800209 -6.85727,-1.614431 l -2.369029,0.114812 -0.09661,10.890013 c -0.06859,7.731175 0.02365,11.034917 0.317976,11.389563 0.513855,0.619157 3.897725,0.663682 6.588161,0.08669 z"
           id="path362"
           transform="matrix(0.75000002,0,0,-0.75000002,618.24189,222.98354)" />
        <path
           style="fill:#ffffff;stroke-width:0.364466"
           d="m 64.658125,41.781135 c -2.13319,-0.457694 -3.747809,-1.597241 -4.227312,-2.983503 -0.295391,-0.853986 -0.441432,-4.591513 -0.455016,-11.644914 -0.02244,-11.652847 0.08529,-12.234266 2.530124,-13.655077 1.105321,-0.642355 1.908214,-0.741085 6.013689,-0.739491 5.3894,0.0021 7.487974,0.522955 9.806293,2.433909 3.859843,3.181609 3.024794,8.693418 -1.605807,10.59926 l -1.275631,0.525019 1.388049,0.590726 c 3.263226,1.388764 4.985316,3.71197 4.988239,6.729445 0.0035,3.593131 -2.302502,6.344755 -6.344815,7.570985 -2.105897,0.638821 -8.847791,0.996326 -10.817813,0.573641 z m 7.390816,-3.378367 c 1.34089,-0.28757 2.286487,-0.774237 3.115901,-1.603651 1.067746,-1.067746 1.190788,-1.406651 1.190788,-3.279894 0,-3.765568 -2.176691,-5.745499 -6.85392,-6.234366 -2.78825,-0.29143 -3.029319,-1.03262 -0.435761,-1.339789 2.432734,-0.288121 4.897281,-1.419934 5.674335,-2.605868 0.348112,-0.531286 0.71044,-1.772626 0.805173,-2.758533 0.159488,-1.659831 0.07954,-1.885261 -1.079742,-3.044543 -1.423399,-1.423399 -3.023896,-1.800209 -6.85727,-1.614431 l -2.369029,0.114812 -0.09661,10.890013 c -0.06859,7.731175 0.02365,11.034917 0.317976,11.389563 0.513855,0.619157 3.897725,0.663682 6.588161,0.08669 z"
           id="path364"
           transform="matrix(0.75000002,0,0,-0.75000002,618.24189,222.98354)" />
        <path
           style="fill:#ffffff;stroke-width:0.364466"
           d="m 64.658125,41.781135 c -2.13319,-0.457694 -3.747809,-1.597241 -4.227312,-2.983503 -0.295391,-0.853986 -0.441432,-4.591513 -0.455016,-11.644914 -0.02244,-11.652847 0.08529,-12.234266 2.530124,-13.655077 1.105321,-0.642355 1.908214,-0.741085 6.013689,-0.739491 5.3894,0.0021 7.487974,0.522955 9.806293,2.433909 3.859843,3.181609 3.024794,8.693418 -1.605807,10.59926 l -1.275631,0.525019 1.388049,0.590726 c 3.263226,1.388764 4.985316,3.71197 4.988239,6.729445 0.0035,3.593131 -2.302502,6.344755 -6.344815,7.570985 -2.105897,0.638821 -8.847791,0.996326 -10.817813,0.573641 z m 7.390816,-3.378367 c 1.34089,-0.28757 2.286487,-0.774237 3.115901,-1.603651 1.067746,-1.067746 1.190788,-1.406651 1.190788,-3.279894 0,-3.765568 -2.176691,-5.745499 -6.85392,-6.234366 -2.78825,-0.29143 -3.029319,-1.03262 -0.435761,-1.339789 2.432734,-0.288121 4.897281,-1.419934 5.674335,-2.605868 0.348112,-0.531286 0.71044,-1.772626 0.805173,-2.758533 0.159488,-1.659831 0.07954,-1.885261 -1.079742,-3.044543 -1.423399,-1.423399 -3.023896,-1.800209 -6.85727,-1.614431 l -2.369029,0.114812 -0.09661,10.890013 c -0.06859,7.731175 0.02365,11.034917 0.317976,11.389563 0.513855,0.619157 3.897725,0.663682 6.588161,0.08669 z"
           id="path366"
           transform="matrix(0.75000002,0,0,-0.75000002,618.24189,222.98354)" />
        <path
           style="fill:#ffffff;stroke-width:0.364466"
           d="m 64.658125,41.781135 c -2.13319,-0.457694 -3.747809,-1.597241 -4.227312,-2.983503 -0.295391,-0.853986 -0.441432,-4.591513 -0.455016,-11.644914 -0.02244,-11.652847 0.08529,-12.234266 2.530124,-13.655077 1.105321,-0.642355 1.908214,-0.741085 6.013689,-0.739491 5.3894,0.0021 7.487974,0.522955 9.806293,2.433909 3.859843,3.181609 3.024794,8.693418 -1.605807,10.59926 l -1.275631,0.525019 1.388049,0.590726 c 3.263226,1.388764 4.985316,3.71197 4.988239,6.729445 0.0035,3.593131 -2.302502,6.344755 -6.344815,7.570985 -2.105897,0.638821 -8.847791,0.996326 -10.817813,0.573641 z m 7.390816,-3.378367 c 1.34089,-0.28757 2.286487,-0.774237 3.115901,-1.603651 1.067746,-1.067746 1.190788,-1.406651 1.190788,-3.279894 0,-3.765568 -2.176691,-5.745499 -6.85392,-6.234366 -2.78825,-0.29143 -3.029319,-1.03262 -0.435761,-1.339789 2.432734,-0.288121 4.897281,-1.419934 5.674335,-2.605868 0.348112,-0.531286 0.71044,-1.772626 0.805173,-2.758533 0.159488,-1.659831 0.07954,-1.885261 -1.079742,-3.044543 -1.423399,-1.423399 -3.023896,-1.800209 -6.85727,-1.614431 l -2.369029,0.114812 -0.09661,10.890013 c -0.06859,7.731175 0.02365,11.034917 0.317976,11.389563 0.513855,0.619157 3.897725,0.663682 6.588161,0.08669 z"
           id="path368"
           transform="matrix(0.75000002,0,0,-0.75000002,618.24189,222.98354)" />
        <path
           style="fill:#ffffff;stroke-width:0.364466"
           d="m 64.658125,41.781135 c -2.13319,-0.457694 -3.747809,-1.597241 -4.227312,-2.983503 -0.295391,-0.853986 -0.441432,-4.591513 -0.455016,-11.644914 -0.02244,-11.652847 0.08529,-12.234266 2.530124,-13.655077 1.105321,-0.642355 1.908214,-0.741085 6.013689,-0.739491 5.3894,0.0021 7.487974,0.522955 9.806293,2.433909 3.859843,3.181609 3.024794,8.693418 -1.605807,10.59926 l -1.275631,0.525019 1.388049,0.590726 c 3.263226,1.388764 4.985316,3.71197 4.988239,6.729445 0.0035,3.593131 -2.302502,6.344755 -6.344815,7.570985 -2.105897,0.638821 -8.847791,0.996326 -10.817813,0.573641 z m 7.390816,-3.378367 c 1.34089,-0.28757 2.286487,-0.774237 3.115901,-1.603651 1.067746,-1.067746 1.190788,-1.406651 1.190788,-3.279894 0,-3.765568 -2.176691,-5.745499 -6.85392,-6.234366 -2.78825,-0.29143 -3.029319,-1.03262 -0.435761,-1.339789 2.432734,-0.288121 4.897281,-1.419934 5.674335,-2.605868 0.348112,-0.531286 0.71044,-1.772626 0.805173,-2.758533 0.159488,-1.659831 0.07954,-1.885261 -1.079742,-3.044543 -1.423399,-1.423399 -3.023896,-1.800209 -6.85727,-1.614431 l -2.369029,0.114812 -0.09661,10.890013 c -0.06859,7.731175 0.02365,11.034917 0.317976,11.389563 0.513855,0.619157 3.897725,0.663682 6.588161,0.08669 z"
           id="path370"
           transform="matrix(0.75000002,0,0,-0.75000002,618.24189,222.98354)" />
      </g>
    </g>
    <g
       id="g638"
       transform="translate(-618.24189,372.29648)">
      <g
         id="g640"
         clip-path="url(#clipPath644)">
        <g
           id="g646">
          <g
             id="g648">
            <path
               d="m 646.873,205.421 v -0.009 0.013 z"
               style="fill:url(#linearGradient656);stroke:none"
               id="path658" />
          </g>
        </g>
      </g>
    </g>
    <g
       id="g660"
       transform="translate(-618.24189,372.29648)">
      <g
         id="g662"
         clip-path="url(#clipPath666)">
        <g
           id="g668"
           transform="translate(626.0918,204.3135)">
          <path
             d="M 0,0 C 0,-0.013 0.025,-0.354 0.025,-0.354 0.024,-0.433 0.067,-0.503 0.135,-0.535 0.2,-0.563 0.276,-0.549 0.335,-0.495 0.928,0.001 1.828,0.447 2.549,0.196 3.111,0.001 3.498,-0.581 3.697,-1.538 4.109,-3.541 2.732,-4.506 1.876,-4.903 L 1.846,-4.916 0.748,-5.458 c 0,0 -0.06,-0.023 -0.128,0.01 -0.066,0.033 -0.091,0.079 -0.133,0.195 -0.749,2.761 -1.001,5.655 -0.721,8.354 0.027,0.208 0.117,0.451 0.281,0.652 L 0.96,4.735 1.066,4.847 C 1.57,5.337 2.033,5.577 2.289,5.474 2.506,5.383 2.559,5.046 2.563,4.778 2.602,3.343 1.8,1.877 0.111,0.295 0.111,0.295 -0.015,0.19 0,0 M 5.06,1.99 C 4.561,2.288 3.99,2.374 3.42,2.292 4.463,3.401 5.03,4.608 5.03,5.825 5.03,5.937 5.025,6.048 5.016,6.159 4.959,6.917 4.605,7.485 4.071,7.68 3.523,7.879 2.537,7.779 0.953,6.166 L 0.008,5.104 C -0.25,4.786 -1.246,3.279 -1.434,1.712 c -0.306,-2.67 -0.109,-5.329 0.569,-7.692 0.08,-0.275 0.331,-0.942 0.945,-1.191 0.652,-0.262 1.27,0.054 1.813,0.337 l 0.145,0.072 0.562,0.252 0.546,0.242 0.67,0.291 c 0.477,0.195 0.928,0.379 1.362,0.745 0.584,0.495 1.01,1.147 1.23,1.883 0.113,0.383 0.19,0.8 0.233,1.274 0.033,0.369 0.068,1.081 -0.067,1.709 C 6.275,1.016 5.585,1.679 5.06,1.99"
             style="fill:#ffffff;fill-opacity:1;fill-rule:nonzero;stroke:none"
             id="path670" />
        </g>
        <g
           id="g672"
           transform="translate(643.625,214.6777)">
          <path
             d="m 0,0 c -0.309,1.058 -0.818,1.282 -0.962,1.33 -1.315,0.422 -2.687,0.509 -4.02,0.274 -2.002,-0.367 -3.735,-1.415 -4.877,-2.954 -1.203,-1.617 -1.666,-3.632 -1.311,-5.672 0.361,-2.049 1.399,-3.707 3.004,-4.793 1.879,-1.27 4.389,-1.657 7.064,-1.089 1.579,0.339 2.891,0.956 3.903,1.829 0.452,0.392 0.543,0.889 0.543,1.243 0,0 0.019,0.281 -0.199,1.171 -0.059,0.218 -0.155,0.281 -0.307,0.281 -0.11,0 -0.227,-0.126 -0.25,-0.152 -0.753,-0.873 -1.904,-1.482 -3.344,-1.766 -3.683,-0.708 -6.52,1.014 -7.222,4.39 -0.301,1.461 -0.049,2.864 0.708,3.953 0.768,1.099 2.024,1.83 3.536,2.058 1.155,0.168 2.326,0.025 3.383,-0.415 0,0 0.449,-0.128 0.351,0.312"
             style="fill:#ffffff;fill-opacity:1;fill-rule:nonzero;stroke:none"
             id="path674" />
        </g>
        <g
           id="g676"
           transform="translate(746.2109,199.5078)"
           style="fill:#ffffff" />
        <g
           id="g680"
           transform="translate(670.2793,194.0674)"
           style="fill:#ffffff">
          <path
             d="M 0,0 H -0.071 -2.242 C -2.74,0 -3.144,0.353 -3.199,0.797 v 15.321 c 0.055,0.449 0.459,0.801 0.957,0.801 h 2.428 c 2.693,0 4.361,-1.149 4.361,-3.186 0,-3.314 -3.16,-4.197 -6.082,-4.252 -0.135,0 -0.244,-0.097 -0.244,-0.22 V 8.675 C -1.779,8.545 -1.67,8.45 -1.535,8.45 1.367,8.4 5.203,7.852 5.203,3.757 5.203,1.076 2.74,0 0,0 m 0.342,-2.696 c 6.771,0 9.226,3.173 9.226,6.311 0,2.995 -2.273,4.976 -4.748,5.558 2.559,0.674 3.905,2.306 3.905,4.663 0,2.539 -1.961,5.773 -8.864,5.773 v 0.005 H -2.171 C -3.229,19.595 -7.092,19.3 -7.092,16.118 V 0.807 c 0,-3.688 5.184,-3.503 5.184,-3.503 z"
             style="fill:#ffffff;fill-opacity:1;fill-rule:nonzero;stroke:none"
             id="path682" />
        </g>
        <g
           id="g684"
           transform="translate(693.2227,210.3809)"
           style="fill:#ffffff">
          <path
             d="m 0,0 c 2.168,-0.08 3.724,-0.824 5.248,-1.896 0.055,-0.04 0.115,-0.051 0.186,-0.051 0.205,0 0.372,0.167 0.372,0.375 v 0.889 c 0,1.473 -0.455,2.081 -0.902,2.353 -1.785,0.97 -3.879,1.514 -6.123,1.514 -6.502,0 -11.043,-4.537 -11.043,-11.036 v -0.003 c 0,-6.503 4.541,-11.04 11.043,-11.04 2.244,0 4.338,0.547 6.123,1.517 0.447,0.274 0.902,0.88 0.902,2.354 v 0.889 c 0,0.206 -0.167,0.372 -0.372,0.372 -0.071,0 -0.131,-0.011 -0.186,-0.05 -1.524,-1.071 -3.08,-1.813 -5.248,-1.897 -5.021,-0.188 -8.216,2.766 -8.216,7.855 v 0.003 c 0,5.09 3.195,8.043 8.216,7.852"
             style="fill:#ffffff;fill-opacity:1;fill-rule:nonzero;stroke:none"
             id="path686" />
        </g>
        <g
           id="g688"
           transform="translate(706.6797,203.5039)"
           style="fill:#ffffff" />
        <g
           id="g692"
           transform="translate(726.6621,196.8145)" />
        <g
           id="g696"
           transform="translate(742.1465,206.2813)"
           style="fill:#ffffff" />
      </g>
    </g>
    <g
       aria-label="teams"
       transform="scale(1,-1)"
       id="text477"
       style="font-size:32px;fill:#ffffff;stroke-width:0.75" />
  </g>
  <g
     aria-label="콜라보"
     id="text512"
     style="font-size:34.6667px;font-family:'BC card';-inkscape-font-specification:'BC card';fill:#ffffff">
    <path
       d="m 140.50436,40.839643 v 1.698668 q 0,0.485334 -0.38133,0.832001 -0.38133,0.346667 -0.79733,0.346667 h -15.39202 q -1.38667,0 -2.32267,-0.936001 -0.90133,-0.901334 -0.90133,-2.530669 v -3.952004 h 14.45601 q 0.38134,0 0.58934,-0.208 0.24266,-0.208 0.24266,-0.589334 v -0.970667 h -15.63468 v -2.842669 h 19.79469 v 4.368004 q 0,1.213334 -0.728,2.045335 -0.728,0.832 -2.14934,0.832 h -12.34134 v 0.866668 q 0,0.52 0.24266,0.762667 0.24267,0.277334 0.728,0.277334 z m 3.95201,-14.07468 v 1.386668 q 0,0.762668 -0.45067,1.144001 -0.45067,0.381334 -0.97067,0.381334 h -26.72802 v -2.912003 h 8.80534 v -3.813336 h 4.368 v 3.813336 z m -8.49334,-5.616005 h -15.46135 v -2.808002 h 15.63468 v -2.184002 h -15.98135 v -2.912003 h 18.16535 q 1.00534,0 1.59467,0.624001 0.58933,0.624 0.58933,1.560001 v 3.189336 q 0,0.901334 -0.208,1.906669 -0.17333,1.005334 -0.45066,1.941335 -0.312,0.970667 -0.728,1.802668 -0.38134,0.832001 -0.79734,1.386668 l -3.224,-1.040001 q 0.24267,-0.658667 0.48533,-1.525335 0.24267,-0.901334 0.38134,-1.941335 z"
       id="path208" />
    <path
       d="m 169.58974,12.898284 h 4.36801 v 9.290675 h 4.992 v 2.912003 h -4.992 v 15.045347 q 0,1.005334 -0.58934,1.594668 -0.55466,0.589334 -1.59467,0.589334 h -2.184 z m -5.54667,9.429342 q 0,1.213334 -0.728,2.045335 -0.728,0.832001 -2.14933,0.832001 h -7.38401 v 4.437337 q 0,0.520001 0.24267,0.797334 0.24266,0.242667 0.728,0.242667 h 11.71734 v 1.768002 q 0,0.485334 -0.38133,0.832001 -0.38134,0.346667 -0.79734,0.346667 h -12.65334 q -1.38667,0 -2.32267,-0.901335 -0.90134,-0.936 -0.90134,-2.565335 v -7.904007 h 9.56801 q 0.38134,0 0.58934,-0.208001 0.24266,-0.208 0.24266,-0.589334 v -4.576004 h -10.05334 v -2.946669 h 12.09868 q 1.00533,0 1.59467,0.624 0.58933,0.624001 0.58933,1.560002 z"
       id="path210" />
    <path
       d="m 209.6298,34.772971 v 1.386668 q 0,0.762667 -0.45067,1.144001 -0.45067,0.381333 -0.97067,0.381333 h -26.72802 v -2.912002 h 11.92534 v -5.130672 h -4.33333 q -1.456,0 -2.35734,-0.866667 -0.86667,-0.901334 -0.86667,-2.530669 V 13.938285 h 2.21867 q 1.04,0 1.59467,0.624 0.58933,0.624001 0.58933,1.560002 v 3.085336 h 10.98935 v -5.269338 h 2.184 q 1.00533,0 1.59467,0.624 0.58933,0.624001 0.58933,1.560002 v 8.978675 q 0,1.872002 -1.10933,3.224003 -1.07467,1.317334 -3.25867,1.317334 h -3.46667 v 5.130672 z m -18.44268,-8.042674 h 8.49334 q 0.69333,0 1.10933,-0.381334 0.45067,-0.416 0.45067,-1.248001 v -3.016003 h -10.98935 v 3.46667 q 0,0.658667 0.24267,0.936001 0.27733,0.242667 0.69334,0.242667 z"
       id="path212" />
  </g>
</svg>
